<!-- Generated by IcoMoon.io -->
<svg version="1.1" xmlns="http://www.w3.org/2000/svg" width="1024" height="1024" viewBox="0 0 1024 1024">
<title></title>
<g id="icomoon-ignore">
</g>
<path d="M1022.976 301.056c-0.78-44.884-9.351-87.535-24.412-126.98l0.86 2.564c-13.648-35.496-33.85-65.734-59.339-90.572l-0.053-0.052c-25.6-25.6-56.32-46.080-90.624-58.88-36.844-14.331-79.464-23.072-123.997-24.057l-0.419-0.007c-46.659-2.229-101.348-3.499-156.333-3.499-19.2 0-38.365 0.155-57.492 0.463l2.88-0.037c-139.264 0-156.672 0.512-210.944 3.072-54.784 2.048-92.16 11.264-124.416 23.552-34.304 13.312-65.024 33.28-90.624 59.392-26.112 25.6-46.080 56.32-59.392 90.624-14.171 36.88-22.739 79.527-23.547 124.069l-0.005 0.347c-2.229 46.659-3.499 101.348-3.499 156.333 0 19.2 0.155 38.365 0.463 57.492l-0.037-2.88c0 139.264 0 156.672 2.56 210.944 0.959 44.946 9.704 87.571 24.932 126.969l-0.868-2.553c12.8 34.304 33.28 65.024 59.392 90.624 25.6 26.112 56.32 46.080 90.624 59.392 32.256 12.288 69.632 20.992 123.904 23.552 54.784 2.56 71.68 3.072 210.944 3.072s156.672-0.512 211.456-3.072c44.716-0.844 87.183-9.409 126.468-24.412l-2.564 0.86c69.113-27.221 122.795-80.903 149.398-148.24l0.618-1.776c12.288-32.768 21.504-69.632 23.552-124.416 2.56-54.272 3.072-71.68 3.072-210.944 0-138.752 0-156.16-2.56-210.944zM930.816 719.36c-2.048 49.664-10.24 76.8-17.408 94.72-17.651 44.818-52.462 79.629-96.128 96.879l-1.152 0.401c-17.92 7.168-45.568 15.36-95.232 17.408-53.76 2.56-70.144 3.072-206.848 3.072-14.867 0.221-32.417 0.347-49.996 0.347-55.166 0-110.041-1.241-164.601-3.697l7.749 0.277c-50.176-2.048-76.8-10.24-94.72-17.408-23.106-8.661-42.78-21.75-58.838-38.356l-0.042-0.044c-16.567-15.984-29.638-35.472-38.033-57.282l-0.367-1.086c-10.764-28.277-17.124-60.97-17.407-95.11l-0.001-0.122c-2.177-46.824-3.418-101.72-3.418-156.905 0-17.559 0.126-35.089 0.376-52.589l-0.030 2.646c0-136.704 0.512-153.088 3.072-206.848 2.048-50.176 10.24-76.8 17.408-95.232 8.192-22.016 20.992-41.984 38.4-58.368 16.119-16.622 35.786-29.705 57.788-38.037l1.092-0.363c17.92-7.168 45.056-15.36 95.232-17.408 53.76-2.56 70.144-3.072 206.336-3.072 137.216 0 153.6 0 206.848 3.072 50.176 2.048 76.8 10.24 95.232 17.408 22.016 8.192 42.496 20.992 58.88 38.4 16.896 16.384 30.208 36.352 38.4 58.368 6.656 18.432 15.36 45.568 17.408 95.232 2.56 53.76 3.072 70.144 3.072 206.848s-0.512 152.576-3.072 206.848z"></path>
<path d="M514.048 248.832c-145.344 0-263.168 117.824-263.168 263.168s117.824 263.168 263.168 263.168v0c145.344 0 263.168-117.824 263.168-263.168s-117.824-263.168-263.168-263.168v0zM514.048 682.496c-94.162 0-170.496-76.334-170.496-170.496s76.334-170.496 170.496-170.496v0c94.162 0 170.496 76.334 170.496 170.496s-76.334 170.496-170.496 170.496v0zM848.896 238.592c0 33.932-27.508 61.44-61.44 61.44s-61.44-27.508-61.44-61.44v0c0-33.932 27.508-61.44 61.44-61.44s61.44 27.508 61.44 61.44v0z"></path>
</svg>
