<!-- Generated by IcoMoon.io -->
<svg version="1.1" xmlns="http://www.w3.org/2000/svg" width="1024" height="1024" viewBox="0 0 1024 1024">
<title></title>
<g id="icomoon-ignore">
</g>
<path d="M1024 1024v-375.808c0-183.296-39.424-325.12-254.464-325.12-2.44-0.096-5.304-0.15-8.181-0.15-81.752 0-153.217 44.047-191.956 109.704l-0.567 1.039h-3.072v-93.184h-203.776v683.52h212.48v-338.432c0-89.088 16.896-175.616 126.976-175.616 109.056 0 110.592 101.888 110.592 181.248v332.8h211.968zM16.896 340.48h212.48v683.52h-212.48v-683.52zM122.88 0c-67.865 0-122.88 55.015-122.88 122.88v0c-0.001 0.153-0.001 0.335-0.001 0.516 0 68.071 54.892 123.321 122.826 123.899h0.055c68.096 0 122.88-56.32 122.88-124.416 0-67.865-55.015-122.88-122.88-122.88v0z"></path>
</svg>
