<!-- Generated by IcoMoon.io -->
<svg version="1.1" xmlns="http://www.w3.org/2000/svg" width="1809" height="1024" viewBox="0 0 1809 1024">
<title></title>
<g id="icomoon-ignore">
</g>
<path d="M648.533 119.467l119.467 113.152h-221.867v549.035h580.267v-209.92l119.467 112.981v-565.248h-597.333zM1121.28 558.592l-339.456-321.024h339.456v320.853zM1015.808 701.611h-377.856v-369.493h26.795v344.405h351.061v25.088zM727.211 855.040l-13.995 28.672-13.995-28.672h-11.605l20.48 38.4v22.187h10.411v-22.187l20.48-38.4h-11.947zM744.789 915.627l4.779-13.995h23.552l5.12 13.995h10.923l-23.040-60.587h-9.387l-23.040 60.587h11.093zM761.344 867.84l8.875 25.259h-17.579l8.704-25.259zM816.981 891.733c-1.391 2.104-2.219 4.686-2.219 7.461 0 0.017 0 0.034 0 0.051v-0.003c0 5.12 1.707 9.387 5.291 12.459 3.584 3.243 8.533 4.779 14.507 4.779s11.093-1.707 15.36-4.779l3.413 3.925h11.947l-9.045-10.411c3.413-4.779 5.12-10.923 5.12-18.432h-8.533c0 4.096-1.024 7.851-2.731 11.093l-11.605-13.653 4.096-3.243c2.901-2.048 5.12-4.096 6.315-6.315 1.173-1.943 1.867-4.289 1.867-6.798 0-3.85-1.635-7.319-4.248-9.749l-0.008-0.008c-2.708-2.44-6.312-3.933-10.264-3.933-0.172 0-0.342 0.003-0.513 0.008l0.025-0.001c-0.29-0.019-0.629-0.029-0.971-0.029-4.158 0-7.95 1.565-10.82 4.139l0.015-0.013c-2.652 2.681-4.29 6.369-4.29 10.439 0 0.29 0.008 0.578 0.025 0.864l-0.002-0.040c0 2.048 0.512 4.096 1.365 6.144s2.56 4.608 4.949 7.509c-3.535 2.347-6.529 5.178-8.979 8.441l-0.066 0.092zM844.288 905.045c-2.589 2.106-5.921 3.39-9.552 3.413h-0.005c-0.153 0.008-0.331 0.013-0.511 0.013-2.567 0-4.906-0.977-6.665-2.58l0.008 0.007c-1.689-1.645-2.737-3.942-2.737-6.483 0-0.121 0.002-0.241 0.007-0.361l-0.001 0.017c0-3.413 1.707-6.144 5.12-8.704l1.195-1.024 13.141 15.701zM833.536 878.080c-2.901-3.413-4.267-6.315-4.267-8.704 0-2.048 0.512-3.755 1.707-5.12 1.092-1.16 2.638-1.883 4.353-1.883 0.090 0 0.179 0.002 0.268 0.006h-0.013c1.877 0 3.413 0.512 4.608 1.707 1.195 1.024 1.707 2.389 1.707 3.925 0 2.389-0.853 4.437-2.56 5.973l-1.195 1.024-4.608 3.072zM932.181 911.189c4.267-3.755 6.656-8.704 7.168-15.36h-10.411c-0.512 4.437-1.877 7.509-3.925 9.387-2.219 1.877-5.12 2.731-9.387 2.731-0.155 0.007-0.336 0.011-0.518 0.011-4.021 0-7.572-2.016-9.697-5.092l-0.026-0.039c-2.389-3.413-3.584-8.533-3.584-15.019v-5.291c0-6.485 1.195-11.435 3.755-14.677 2.389-3.413 5.973-5.12 10.581-5.12 3.925 0 6.827 1.024 8.875 2.901s3.413 5.12 3.925 9.387h10.411c-0.309-6.057-2.93-11.448-6.99-15.353l-0.007-0.007c-4.038-3.414-9.303-5.49-15.053-5.49-0.408 0-0.814 0.010-1.217 0.031l0.056-0.002c-5.12 0-9.387 1.195-13.141 3.413-3.755 2.56-6.827 5.803-8.704 10.24-2.048 4.267-3.072 9.387-3.072 15.019v5.803c0 5.461 1.024 10.411 3.072 14.677s4.779 7.509 8.533 9.728c3.755 2.389 8.021 3.413 12.8 3.413 6.827 0 12.459-1.707 16.555-5.291zM994.133 902.656c2.048-4.608 3.072-9.728 3.072-15.701v-3.413c0-5.973-1.024-11.093-3.072-15.36-3.655-8.312-11.817-14.011-21.31-14.011-0.308 0-0.615 0.006-0.921 0.018l0.044-0.001c-4.779 0-9.216 1.195-12.971 3.584s-6.827 5.973-8.875 10.411c-2.048 4.608-3.243 9.728-3.243 15.701v3.413c0 5.803 1.195 10.923 3.243 15.36s5.12 7.851 8.875 10.24c3.925 2.389 8.363 3.584 13.141 3.584 5.12 0 9.387-1.195 13.312-3.413 3.755-2.56 6.827-5.973 8.704-10.411zM982.869 868.352c2.56 3.413 3.925 8.704 3.925 15.36v3.243c0 6.827-1.365 11.947-3.925 15.531-2.247 3.224-5.936 5.307-10.113 5.307-0.225 0-0.448-0.006-0.67-0.018l0.031 0.001c-0.139 0.006-0.303 0.009-0.467 0.009-4.225 0-7.966-2.075-10.259-5.262l-0.026-0.038c-2.494-3.962-3.973-8.78-3.973-13.943 0-0.558 0.017-1.113 0.051-1.663l-0.004 0.075v-3.413c0-6.656 1.365-11.605 3.925-15.36 2.291-3.129 5.952-5.138 10.081-5.138 0.236 0 0.471 0.007 0.703 0.020l-0.032-0.001c4.608 0 8.192 1.707 10.752 5.12z"></path>
</svg>
