<!-- Generated by IcoMoon.io -->
<svg version="1.1" xmlns="http://www.w3.org/2000/svg" width="1809" height="1024" viewBox="0 0 1809 1024">
<title></title>
<g id="icomoon-ignore">
</g>
<path d="M621.227 837.973l0.853 0.171 0.683 0.341 3.755 3.584c-2.901 2.901-6.485 5.12-10.411 6.827-4.779 1.707-9.899 2.56-14.848 2.389-4.779 0-9.557-0.683-13.995-2.219-7.874-2.723-14.058-8.573-17.168-16.025l-0.070-0.188c-1.614-3.755-2.553-8.125-2.553-12.715s0.939-8.96 2.635-12.93l-0.082 0.215c1.707-3.584 4.096-6.997 7.339-9.899 3.072-2.731 6.827-4.949 11.093-6.315 4.295-1.551 9.252-2.447 14.417-2.447 4.789 0 9.398 0.771 13.71 2.194l-0.309-0.088c3.584 1.365 6.997 3.413 9.899 5.803l-3.072 3.755c-0.239 0.273-0.521 0.501-0.837 0.675l-0.016 0.008c-0.335 0.214-0.744 0.341-1.182 0.341-0.004 0-0.009 0-0.013 0h0.001c-0.516-0.063-0.979-0.246-1.376-0.519l0.010 0.007-1.707-1.024-2.219-1.195c-3.429-1.739-7.476-2.758-11.761-2.758-0.425 0-0.848 0.010-1.269 0.030l0.059-0.002c-3.413 0-6.997 0.512-10.24 1.707-6.070 2.090-10.842 6.584-13.258 12.314l-0.054 0.145c-1.277 2.919-2.028 6.318-2.048 9.891v0.007c0 3.413 0.683 6.997 1.877 10.24 2.34 5.807 7.011 10.254 12.822 12.244l0.149 0.044c3.072 1.024 6.315 1.707 9.557 1.707l5.632-0.341c4.742-0.514 8.96-2.428 12.318-5.316l-0.030 0.025c0.46-0.392 1.051-0.643 1.699-0.682h0.008zM728.747 820.053c0 4.437-0.683 8.533-2.389 12.629-1.707 3.584-3.925 6.827-6.997 9.728-3.243 2.901-6.827 5.12-11.093 6.485-9.045 3.072-19.115 3.072-28.331 0-4.223-1.517-7.856-3.722-10.952-6.511l0.029 0.026c-2.95-2.713-5.317-6.010-6.926-9.713l-0.072-0.185c-3.413-8.021-3.413-17.067 0-25.088 1.707-3.755 3.925-6.997 6.997-9.899 3.243-2.731 6.827-4.779 10.923-6.315 4.226-1.466 9.097-2.312 14.165-2.312s9.939 0.847 14.479 2.406l-0.313-0.094c4.096 1.536 7.851 3.755 11.093 6.485 5.789 5.322 9.403 12.93 9.403 21.382 0 0.343-0.006 0.684-0.018 1.024l0.001-0.049zM719.019 820.053c0-3.413-0.512-6.827-1.707-10.069-2.264-5.801-6.885-10.255-12.654-12.244l-0.146-0.044c-3.057-1.040-6.578-1.641-10.24-1.641s-7.183 0.601-10.471 1.709l0.231-0.068c-3.116 1.069-5.792 2.7-8.035 4.791l0.013-0.012c-2.198 2.047-3.939 4.554-5.071 7.372l-0.049 0.138c-2.219 6.656-2.219 13.653 0 20.309 2.278 5.847 6.973 10.319 12.825 12.246l0.146 0.042c6.656 2.048 13.995 2.048 20.48 0 3.072-1.195 5.803-2.731 8.021-4.779 2.219-2.219 3.925-4.779 4.949-7.509 1.195-3.413 1.707-6.827 1.707-10.24zM802.133 830.635l1.024 2.389 1.024-2.389 1.195-2.219 23.893-37.547c0.341-0.512 0.853-1.024 1.195-1.024 0.611-0.216 1.315-0.341 2.048-0.341v0h6.997v61.099h-8.363v-48.811l-23.893 38.059c-0.32 0.58-0.785 1.045-1.348 1.356l-0.018 0.009c-0.586 0.322-1.284 0.512-2.027 0.512-0.008 0-0.015 0-0.023 0h-1.364c-0.019 0-0.042 0.001-0.064 0.001-0.728 0-1.412-0.19-2.004-0.523l0.021 0.011c-0.58-0.32-1.045-0.785-1.356-1.348l-0.009-0.018-24.576-38.4v49.152h-8.192v-61.099h7.168c0.512 0 1.195 0 1.877 0.341 0.512 0.171 1.024 0.512 1.365 1.024l24.235 37.547 1.195 2.219zM891.563 827.733v22.869h-9.216v-61.099h20.651c3.925 0 7.851 0.512 11.605 1.365 3.072 0.683 5.803 2.048 8.192 3.755 2.048 1.707 3.755 3.755 4.779 5.973 1.024 2.56 1.707 5.12 1.536 7.851 0.001 0.051 0.001 0.11 0.001 0.17 0 5.565-2.663 10.507-6.785 13.623l-0.043 0.031c-2.389 1.877-5.12 3.413-8.192 4.096-3.259 0.976-7.004 1.538-10.88 1.538-0.135 0-0.27-0.001-0.405-0.002h0.021l-11.264-0.171zM891.563 821.077h11.264c2.56 0 4.949-0.171 7.339-0.853 1.965-0.627 3.668-1.559 5.15-2.754l-0.030 0.023c2.615-2.176 4.268-5.431 4.268-9.072 0-0.051 0-0.101-0.001-0.152v0.008c0.013-0.192 0.020-0.415 0.020-0.641 0-1.498-0.322-2.92-0.899-4.203l0.026 0.065c-0.818-1.709-1.972-3.137-3.388-4.247l-0.026-0.019c-3.413-2.389-7.851-3.413-12.459-3.243h-11.264v25.088zM1016.661 850.603h-7.339c-0.071 0.005-0.153 0.008-0.237 0.008-0.671 0-1.297-0.194-1.825-0.528l0.014 0.008c-0.502-0.352-0.906-0.811-1.185-1.345l-0.010-0.021-6.315-14.848h-31.744l-6.656 14.848c-0.23 0.548-0.579 1.007-1.017 1.36l-0.007 0.005c-0.519 0.335-1.153 0.534-1.833 0.534-0.136 0-0.27-0.008-0.402-0.023l0.016 0.002h-7.339l27.989-61.099h9.728l28.16 61.099zM970.581 827.904h26.283l-11.093-24.747c-0.853-1.877-1.536-3.925-2.048-5.803l-1.024 3.243-1.024 2.56-11.093 24.747zM1056.939 789.845l1.365 1.024 40.789 46.080v-47.445h8.192v61.099h-4.608c-0.683 0-1.365 0-1.877-0.341-0.601-0.309-1.11-0.709-1.531-1.189l-0.005-0.006-40.619-46.080v47.616h-8.363v-61.099h5.12c0.341 0 1.024 0 1.536 0.341zM1175.893 826.368v24.235h-9.216v-24.235l-25.771-36.864h8.363c0.071-0.005 0.153-0.008 0.237-0.008 0.671 0 1.297 0.194 1.825 0.528l-0.014-0.008 1.195 1.365 16.043 23.893c1.014 1.509 1.983 3.245 2.808 5.061l0.094 0.23 1.195-2.56 1.707-2.731 15.701-23.893c0.343-0.521 0.738-0.97 1.187-1.358l0.008-0.007c0.523-0.426 1.198-0.685 1.934-0.685 0.040 0 0.080 0.001 0.12 0.002h8.527l-25.941 37.035zM797.525 687.104l12.288 1.024c62.296-23.89 114.077-63.474 152.12-113.99l0.627-0.869c33.919-45.207 54.316-102.254 54.316-164.065 0-1.721-0.016-3.439-0.047-5.153l0.004 0.258-69.291-60.075c14.165 63.659 7.509 129.365-18.944 189.952-29.038 63.447-73.937 115.362-129.725 152.084l-1.347 0.833z"></path>
<path d="M772.779 684.373l1.877 0.171c63.147-39.253 111.445-94.037 138.24-157.525 15.285-34.524 24.184-74.79 24.184-117.135 0-28.726-4.095-56.496-11.734-82.757l0.521 2.090-98.645-85.504c30.733 52.557 48.879 115.717 48.879 183.116 0 15.461-0.955 30.7-2.809 45.659l0.181-1.789c-11.247 83.316-47.525 156.61-100.899 213.726l0.205-0.222zM1107.115 474.965c-19.176 69.642-60.239 127.819-115.197 168.189l-0.857 0.601c-17.067 12.971-35.499 24.405-54.955 34.304 47.616-12.117 91.477-33.621 128-62.805 35.288-27.964 63.411-63.413 82.214-104.054l0.73-1.759-39.936-34.475z"></path>
<path d="M1091.413 465.237l-57.003-49.493c-1.515 60.052-21.308 115.199-53.995 160.411l0.576-0.837c-35.622 49.076-82.56 87.859-137.101 112.943l-2.163 0.892h0.341c12.8 0 25.6-0.683 38.229-1.877 54.147-19.1 100.274-49.181 137.635-87.797l0.093-0.097c34.972-36.17 60.631-81.559 72.978-132.164l0.408-1.98zM781.141 207.531l-67.925-59.051c-60.607 19.958-111.513 55.604-149.562 102.168l-0.454 0.574c-34.834 42.947-56.113 98.126-56.66 158.258l-0.001 0.121c0.893 66.65 26.885 127.062 68.929 172.367l-0.151-0.164c45.715 49.213 105.913 84.398 173.795 98.774l2.162 0.383c58.885-60.701 97.323-141.532 104.032-231.207l0.075-1.241c0.371-6.137 0.583-13.312 0.583-20.536 0-83.33-28.144-160.086-75.444-221.282l0.622 0.837zM1248.256 456.192c-0.171-74.24-34.133-145.067-94.549-197.632-60.297-51.058-138.959-82.099-224.872-82.099-0.864 0-1.727 0.003-2.589 0.009l0.133-0.001c-39.424 0-78.507 6.315-115.371 18.773l415.744 360.96c13.536-29.392 21.452-63.77 21.504-99.992v-0.019z"></path>
</svg>
