<!-- Generated by IcoMoon.io -->
<svg version="1.1" xmlns="http://www.w3.org/2000/svg" width="1809" height="1024" viewBox="0 0 1809 1024">
<title></title>
<g id="icomoon-ignore">
</g>
<path d="M911.701 467.627c-6.454-8.377-10.343-19.019-10.343-30.57 0-1.134 0.037-2.259 0.111-3.374l-0.008 0.151v-49.152c0-15.189 3.413-26.624 10.24-34.475s18.773-11.776 35.328-11.605c15.531 0 26.795 3.413 33.28 9.899 7.168 8.533 10.581 18.944 9.899 29.525v11.435h-27.989v-11.605c0-3.925-0.171-7.68-0.853-11.435-0.455-2.768-1.88-5.142-3.906-6.811l-0.019-0.015c-2.543-1.737-5.685-2.773-9.068-2.773-0.412 0-0.821 0.015-1.226 0.046l0.054-0.003c-0.304-0.019-0.659-0.030-1.017-0.030-3.57 0-6.883 1.096-9.623 2.969l0.059-0.038c-2.366 1.844-4.072 4.438-4.761 7.421l-0.017 0.089c-0.683 3.925-1.024 8.021-1.024 11.947v59.733c-0.512 5.973 0.853 11.605 3.584 16.896 1.365 1.707 3.413 3.243 5.632 4.096 1.589 0.609 3.428 0.961 5.349 0.961 0.641 0 1.273-0.039 1.893-0.116l-0.074 0.007c0.396 0.036 0.857 0.057 1.323 0.057 3.199 0 6.17-0.978 8.629-2.651l-0.053 0.034c2.216-1.805 3.763-4.358 4.257-7.268l0.010-0.070c0.512-3.925 0.853-8.021 0.853-11.947v-12.288h27.989v11.093c0.683 10.923-2.731 21.845-9.728 30.891-6.485 7.339-17.408 10.923-33.451 10.923-16.213 0-28.331-3.925-35.328-11.947zM1028.437 468.309c-7.168-7.68-10.581-18.773-10.581-33.621v-51.712c0-14.677 3.413-25.6 10.581-33.28 6.997-7.509 18.773-11.264 35.499-11.093 16.384 0 28.16 3.584 35.157 11.093 7.168 7.509 10.752 18.603 10.752 33.28v51.712c0 14.677-3.584 25.771-10.752 33.451-7.168 7.851-18.773 11.605-35.157 11.605s-28.501-3.925-35.499-11.435zM1076.907 455.851c2.56-4.779 3.755-10.069 3.413-15.36v-63.317c0.341-5.12-0.853-10.24-3.413-15.019-1.465-1.812-3.364-3.216-5.541-4.065l-0.091-0.031c-1.601-0.619-3.455-0.977-5.391-0.977-0.687 0-1.362 0.045-2.025 0.132l0.078-0.008c-0.611-0.084-1.317-0.132-2.034-0.132-1.966 0-3.848 0.361-5.583 1.022l0.108-0.036c-2.331 0.861-4.289 2.269-5.785 4.074l-0.018 0.022c-2.389 4.608-3.584 9.899-3.413 15.019v63.659c-0.171 5.12 0.853 10.581 3.413 15.36 3.49 3.143 8.133 5.066 13.225 5.066 2.547 0 4.982-0.481 7.219-1.357l-0.135 0.046c2.389-0.853 4.267-2.219 5.973-3.755v-0.341zM1143.467 339.968h30.208l22.699 95.573 23.211-95.573h29.355l2.901 137.899h-21.675l-2.389-95.744-22.187 95.744h-17.749l-23.211-96.085-2.048 96.085h-22.016l2.731-137.899zM1285.632 339.968h46.933c27.136 0 40.619 13.141 40.619 39.253 0 24.917-14.165 37.547-42.667 37.547h-16.043v61.099h-29.013l0.171-137.899zM1325.739 399.019c2.901 0.171 5.803 0 8.533-0.683 2.731-0.853 5.291-2.048 7.509-3.755 3.243-4.608 4.779-10.24 4.096-15.531 0-4.267-0.341-8.533-1.365-12.459-0.467-1.524-1.229-2.837-2.226-3.934l0.007 0.008c-0.997-1.11-2.185-2.026-3.516-2.699l-0.068-0.031c-4.096-1.707-8.533-2.389-12.971-2.219h-11.264v41.301h11.264zM1414.827 339.968h31.232l32.085 137.899h-27.136l-6.315-31.744h-27.819l-6.485 31.744h-27.307l31.915-137.899zM1441.621 430.080l-10.923-57.856-10.752 58.027h21.675zM1503.915 339.968h20.309l38.741 78.677v-78.507h24.235v137.728h-19.285l-39.083-81.92v81.92h-24.917v-137.899zM1643.52 425.301l-32.427-85.163h27.307l19.627 54.613 18.432-54.613h26.624l-31.744 85.333v52.395h-27.989v-52.565zM956.587 538.112v7.168h-23.723v56.149h-9.899v-56.149h-23.893v-7.168h57.515zM1030.827 601.429h-7.851c-0.772 0-1.485-0.256-2.057-0.689l0.009 0.006c-0.58-0.32-1.045-0.785-1.356-1.348l-0.009-0.018-6.827-15.019h-32.768l-6.827 15.019c-0.208 0.67-0.561 1.244-1.024 1.707v0c-0.519 0.335-1.153 0.534-1.833 0.534-0.136 0-0.27-0.008-0.402-0.023l0.016 0.002h-7.68l29.013-63.147h10.24l29.184 62.976zM982.699 577.877h27.307l-11.605-25.6c-0.721-1.673-1.421-3.718-1.976-5.823l-0.072-0.321-1.195 3.413-1.024 2.731-11.435 25.6zM1080.661 595.115h5.461c3.228-0.171 6.256-0.783 9.105-1.776l-0.23 0.070 3.755-1.707v-14.165h-11.435c-0.065 0.006-0.14 0.010-0.216 0.010-0.566 0-1.086-0.197-1.495-0.525l0.005 0.004c-0.143-0.142-0.259-0.312-0.338-0.502l-0.004-0.010-0.171-0.683v-4.779h22.528v24.235c-5.561 3.449-12.19 5.721-19.298 6.304l-0.158 0.010c-2.901 0.341-5.632 0.512-8.533 0.512-5.12 0-9.899-0.853-14.677-2.389-4.471-1.567-8.328-3.83-11.652-6.695l0.046 0.039c-3.035-2.729-5.505-6.018-7.259-9.712l-0.080-0.186c-1.877-4.267-2.731-8.704-2.731-13.141-0.013-0.32-0.020-0.696-0.020-1.073 0-8.854 3.966-16.782 10.219-22.104l0.041-0.034c3.072-2.901 7.168-5.12 11.435-6.656 4.534-1.542 9.756-2.431 15.186-2.431 2.956 0 5.851 0.264 8.661 0.769l-0.295-0.044c4.779 0.688 9.092 2.125 13.016 4.2l-0.216-0.104c1.707 0.853 3.413 2.048 5.12 3.243l-2.901 3.925c-0.254 0.373-0.601 0.666-1.009 0.847l-0.015 0.006c-0.346 0.19-0.753 0.313-1.186 0.341h-0.009c-0.634-0.034-1.217-0.22-1.724-0.522l0.017 0.010c-1.024-0.341-1.877-0.853-2.901-1.536-4.607-2.267-10.027-3.593-15.758-3.593-0.28 0-0.56 0.003-0.839 0.009l0.041-0.001c-0.176-0.003-0.383-0.005-0.59-0.005-3.817 0-7.487 0.626-10.914 1.782l0.241-0.070c-3.413 1.195-6.144 2.901-8.533 5.12-2.303 2.102-4.15 4.661-5.406 7.537l-0.056 0.143c-2.56 6.827-2.56 14.336 0 21.163 4.021 8.551 12.563 14.365 22.464 14.365 1.106 0 2.194-0.073 3.262-0.213l-0.125 0.013zM1173.163 594.091h31.573v7.339h-41.301v-63.147h9.899l-0.171 55.808zM1237.675 601.429h-9.899v-63.147h9.899v63.147zM1274.539 538.453c0.683 0.341 1.195 0.683 1.536 1.195l42.325 47.616v-49.323h8.533v63.488h-4.779c-0.853 0-1.536 0-2.219-0.341-0.596-0.32-1.103-0.718-1.532-1.19l-0.004-0.005-42.325-47.787v49.323h-8.363v-63.147h6.827zM1400.149 538.112v6.827h-35.157v20.992h28.501v6.827h-28.501v21.504h35.157v6.827h-45.397v-62.976h45.397zM361.131 147.797l440.32 107.861v378.197l-440.32-107.861v-378.197zM332.971 115.371v429.056l496.64 121.856v-429.056l-496.811-121.685z"></path>
<path d="M599.040 865.28l-496.64-122.197v-428.544l496.64 121.856v428.715z"></path>
<path d="M341.163 142.848l434.517 106.667-184.832 159.403-434.517-106.496 184.832-159.573zM332.971 115.541l-230.571 198.997 496.64 121.856 230.4-199.168-496.64-121.685zM627.029 841.045l202.581-174.933-202.581-49.664v224.597z"></path>
</svg>
