<!-- Generated by IcoMoon.io -->
<svg version="1.1" xmlns="http://www.w3.org/2000/svg" width="1809" height="1024" viewBox="0 0 1809 1024">
<title></title>
<g id="icomoon-ignore">
</g>
<path d="M456.704 763.563c4.096 4.608 6.315 10.581 6.144 16.555 0.341 3.925-0.512 7.851-2.219 11.605-1.707 3.584-4.096 6.827-7.339 9.557-8.192 5.461-18.091 8.192-28.331 7.68h-49.493v-105.813h48.469c0.796-0.051 1.725-0.080 2.661-0.080 9.043 0 17.455 2.705 24.469 7.35l-0.165-0.103c3.072 2.389 5.632 5.461 7.168 8.875 1.707 3.413 2.389 7.168 2.219 10.923 0.341 5.803-1.707 11.435-5.632 16.043-3.755 4.267-8.875 7.168-14.677 8.363 6.485 1.024 12.459 4.267 16.725 9.045zM398.677 747.52h20.48c4.779 0.341 9.557-0.853 13.312-3.413 1.707-1.365 2.731-2.901 3.413-4.779 0.853-1.707 1.195-3.755 1.024-5.632 0.031-0.323 0.049-0.698 0.049-1.078 0-1.643-0.332-3.208-0.931-4.633l0.029 0.079c-0.815-1.824-1.97-3.362-3.397-4.594l-0.017-0.014c-3.348-2.288-7.483-3.653-11.938-3.653-0.604 0-1.202 0.025-1.793 0.074l0.077-0.005h-20.48v27.648zM434.517 788.139c1.707-1.365 2.901-3.072 3.755-4.949 0.853-1.707 1.195-3.925 1.195-5.803 0.011-0.195 0.017-0.423 0.017-0.652 0-1.935-0.447-3.766-1.244-5.394l0.032 0.073c-0.933-1.983-2.262-3.64-3.897-4.927l-0.029-0.022c-3.55-2.379-7.919-3.796-12.618-3.796-0.484 0-0.965 0.015-1.442 0.045l0.065-0.003h-21.845v29.013h22.187c4.779 0.341 9.728-1.024 13.653-3.755zM555.861 808.96l-26.795-41.301h-10.24v41.301h-23.211v-105.813h44.032c0.944-0.069 2.045-0.108 3.156-0.108 10.389 0 19.975 3.438 27.682 9.238l-0.118-0.085c6.489 5.836 10.552 14.261 10.552 23.634 0 7.633-2.694 14.637-7.183 20.112l0.044-0.056c-5.632 5.803-13.141 9.557-21.163 10.752l28.672 42.325h-25.259zM518.656 753.152h19.115c13.141 0 19.797-5.12 19.797-15.872 0.010-0.204 0.016-0.443 0.016-0.683 0-2.099-0.446-4.093-1.247-5.894l0.037 0.092c-0.893-2.141-2.165-3.96-3.747-5.454l-0.008-0.007c-3.598-2.709-8.142-4.339-13.067-4.339-0.627 0-1.247 0.026-1.861 0.078l0.080-0.005h-19.285l0.171 32.085zM682.837 787.627h-46.251l-8.192 21.333h-24.405l42.667-104.619h26.283l42.325 104.619h-24.405l-8.192-21.333zM676.693 771.584l-17.067-44.544-16.896 44.544h33.963zM841.728 808.96h-23.040l-51.712-71.851v71.68h-22.869v-105.472h23.040l51.712 72.192v-72.192h23.040v105.643zM973.312 783.531c-4.779 8.021-11.947 14.507-20.821 18.773-10.069 4.608-21.163 6.827-32.427 6.656h-40.96v-105.813h40.96c11.264-0.171 22.357 2.048 32.427 6.656 8.875 4.096 16.043 10.411 20.821 18.432 4.487 7.973 7.13 17.502 7.13 27.648s-2.643 19.675-7.278 27.936l0.148-0.288zM947.029 781.141c6.485-6.997 10.24-16.043 10.24-25.259s-3.755-18.261-10.24-25.259c-7.128-5.595-16.229-8.973-26.118-8.973-1.019 0-2.029 0.036-3.030 0.106l0.135-0.008h-15.872v68.267h16.043c10.411 0.683 20.821-2.56 28.843-8.875zM697.344 115.541s297.472 102.741 291.157 251.733v251.733s-297.301-102.912-291.157-251.733v-251.733zM1253.717 560.128c53.937-34.226 118.272-57.099 187.356-63.695l1.742-0.134v-78.848c-78.253 27.444-142.945 77.149-188.292 141.47l-0.807 1.207z"></path>
<path d="M1219.925 583.68c48.845-86.104 126.748-150.933 220.106-181.815l2.785-0.798v-227.499s-423.936 146.944-414.891 358.912v358.4s18.773-6.485 48.64-18.773c0-11.605 0-23.040 1.365-34.645 10.582-103.919 63.562-193.711 141.116-252.967l0.878-0.644z"></path>
<path d="M1179.648 716.971c2.219-24.747 7.168-49.493 14.848-73.387-53.399 56.734-87.071 132.565-89.757 216.222l-0.013 0.525c24.064-10.752 52.053-23.893 81.579-39.424-7.509-34.133-9.728-69.12-6.656-103.936zM1196.373 718.336c-2.731 31.403-0.853 63.147 5.291 93.867 115.883-63.317 245.931-161.28 240.981-279.893v-10.24c-85.052 8.47-160.827 42.684-220.829 94.63l0.498-0.422c-13.271 29.85-22.43 64.472-25.68 100.796l-0.091 1.262z"></path>
</svg>
