<!-- Generated by IcoMoon.io -->
<svg version="1.1" xmlns="http://www.w3.org/2000/svg" width="1809" height="1024" viewBox="0 0 1809 1024">
<title></title>
<g id="icomoon-ignore">
</g>
<path d="M855.211 101.205h-2.219l-10.752-0.341h-7.851c-0.496-0.002-1.083-0.003-1.671-0.003-7.216 0-14.389 0.187-21.513 0.557l0.997-0.041c-62.123 3.413-122.88 19.115-179.371 45.739l-7.339 3.584v377.856l17.237-5.803c55.321-19.922 119.16-31.798 185.665-32.594l0.361-0.003v49.664l-18.091 0.512h-1.365c-86.055 4.781-165.59 28.549-235.822 67.148l2.862-1.441v-484.864c38.275-22.709 82.551-41.205 129.437-53.171l3.512-0.76c37.503-10.051 80.585-15.894 125.009-16.042h7.429c31.145 0.102 61.301 4.143 90.057 11.649l-2.505-0.555v48.981c-17.392-4.295-38.027-7.566-59.134-9.139l-1.282-0.077h-1.195c-4.267-0.341-8.533-0.853-12.459-0.853zM941.227 151.211c9.643 0.618 20.91 0.97 32.258 0.97 47.173 0 92.925-6.082 136.516-17.503l-3.739 0.832c48.103-12.248 90.247-29.14 129.435-50.737l-2.8 1.415v475.989c-38.273 22.747-82.541 41.297-129.422 53.333l-3.528 0.768c-40.96 10.411-82.944 15.872-125.099 16.043-0.862 0.007-1.881 0.011-2.901 0.011-32.726 0-64.491-4.112-94.807-11.848l2.647 0.573v-479.061c17.71 4.327 38.704 7.601 60.178 9.143l1.262 0.073zM1183.573 154.965l-17.237 5.803c-57.314 20.626-123.448 32.55-192.367 32.55-10.797 0-21.526-0.293-32.179-0.87l1.484 0.064-13.995-0.853v388.608l11.947 1.024c9.877 0.757 21.392 1.189 33.007 1.189 40.421 0 79.622-5.228 116.962-15.044l-3.195 0.714c33.792-8.683 63.091-19.598 90.869-33.15l-2.805 1.235 7.509-3.413v-377.856z"></path>
<path d="M609.963 771.584c-4.652-4.752-11.132-7.699-18.301-7.699-0.346 0-0.691 0.007-1.034 0.021l0.049-0.002c-3.755 0-7.509 0.683-11.093 2.048-9.592 3.841-16.244 13.058-16.244 23.829 0 0.443 0.011 0.883 0.033 1.32l-0.002-0.061v64.853c0 4.437 0.683 9.045 2.56 13.141 1.707 3.413 3.755 6.315 6.485 8.704 2.56 2.219 5.632 3.755 8.875 4.608s6.485 1.365 9.728 1.365c14.859-0.287 26.795-12.401 26.795-27.302 0-0.002 0-0.003 0-0.005v0-7.168h-17.067v5.632c0.171 2.048 0 4.096-0.853 5.803-0.541 1.468-1.355 2.721-2.389 3.755v0c-1.927 1.459-4.354 2.35-6.988 2.389h-0.009c-0.342 0.049-0.737 0.076-1.138 0.076-2.816 0-5.313-1.364-6.867-3.466l-0.016-0.023c-1.503-2.332-2.396-5.181-2.396-8.239 0-0.164 0.003-0.327 0.008-0.489l-0.001 0.024v-60.416c0-3.413 0.683-6.656 2.219-9.557 1.536-2.408 4.193-3.981 7.218-3.981 0.343 0 0.682 0.020 1.015 0.060l-0.040-0.004c0.088-0.003 0.191-0.005 0.295-0.005 2.936 0 5.546 1.399 7.198 3.567l0.016 0.022c1.809 2.295 2.902 5.227 2.902 8.415 0 0.041 0 0.083-0.001 0.124v-0.006 5.803h16.725v-6.656c0.001-0.067 0.001-0.145 0.001-0.224 0-7.786-2.913-14.892-7.708-20.287l0.027 0.031zM710.485 770.901c-5.199-4.355-11.959-7-19.337-7-3.59 0-7.034 0.626-10.228 1.776l0.211-0.066c-3.413 1.195-6.315 2.901-8.875 5.12-2.901 2.731-5.12 5.803-6.656 9.216-1.707 3.925-2.56 8.192-2.389 12.629v61.952c-0.171 4.437 0.683 8.704 2.389 12.8 1.536 3.413 3.755 6.315 6.656 8.533 2.56 2.56 5.461 4.437 8.875 5.632 2.996 1.114 6.457 1.759 10.069 1.759s7.073-0.645 10.275-1.826l-0.206 0.066c10.541-3.643 17.977-13.483 17.977-25.059 0-0.611-0.021-1.217-0.061-1.817l0.004 0.081v-62.123c0.017-0.359 0.026-0.781 0.026-1.205 0-8.073-3.417-15.347-8.885-20.455l-0.016-0.015zM702.635 854.528c0.025 0.279 0.039 0.603 0.039 0.931 0 3.186-1.322 6.062-3.448 8.111l-0.003 0.003c-2.138 1.776-4.911 2.855-7.936 2.855s-5.798-1.078-7.956-2.871l0.020 0.016c-2.132-2.026-3.458-4.882-3.458-8.048 0-0.351 0.016-0.699 0.048-1.041l-0.003 0.044v-61.952c-0.029-0.299-0.045-0.646-0.045-0.997 0-3.166 1.326-6.022 3.454-8.043l0.005-0.004c2.138-1.776 4.911-2.855 7.936-2.855s5.798 1.078 7.956 2.871l-0.020-0.016c2.132 2.026 3.458 4.882 3.458 8.048 0 0.351-0.016 0.699-0.048 1.041l0.003-0.044v61.952zM842.581 882.347v-117.76h-16.384l-21.333 62.293h-0.341l-21.504-62.293h-16.043v117.589h16.725v-71.68h0.341l16.384 50.688h8.533l16.555-50.517h0.171v71.509h16.896zM937.984 773.12c-2.56-3.072-5.803-5.12-9.557-6.485-3.485-1.192-7.501-1.88-11.677-1.88-0.155 0-0.309 0.001-0.464 0.003h-24.894v117.589h16.725v-46.080h8.533c5.291 0.341 10.411-0.683 15.189-3.072 6.768-4.23 11.556-11.092 12.947-19.117l0.024-0.168c0.662-3.953 1.040-8.507 1.040-13.149 0-5.979-0.627-11.811-1.82-17.435l0.097 0.547c-1.16-4.274-3.292-7.955-6.152-10.931l0.008 0.008zM929.451 808.96c-0.171 2.048-0.683 4.096-1.707 5.973-1.024 1.707-2.389 3.413-4.267 4.096-2.176 1.080-4.739 1.711-7.449 1.711-0.141 0-0.282-0.002-0.423-0.005h-7.659v-40.107h8.533c2.731 0 5.12 0.341 7.68 1.536 1.707 0.853 3.072 2.389 3.925 4.267 0.837 1.911 1.336 4.136 1.365 6.474v16.054zM1017.173 764.757h-13.653l-25.6 117.589h16.725l4.949-25.259h22.699l5.12 25.259h16.555l-26.453-117.589zM1001.813 841.045l8.363-42.667h0.171l8.192 42.667h-16.725zM1125.547 835.584h-0.341l-25.259-70.827h-16.043v117.589h16.725v-70.656h0.341l25.429 70.656h15.701v-117.76h-16.725v70.827zM1227.947 764.757l-13.653 46.763h-0.171l-13.653-46.763h-17.579l23.040 67.925v49.493h16.725v-49.493l23.040-67.925h-17.749zM563.2 915.456h8.021v22.699h5.461v-22.699h8.021v-4.608h-21.504v4.608zM631.125 910.848l-10.581 27.307h5.803l2.219-6.144h10.923l2.219 6.144h5.973l-10.752-27.307h-5.803zM630.272 927.403l3.584-10.24 3.755 10.24h-7.339zM698.027 928.085h6.485v3.413c-1.749 1.456-4.009 2.352-6.477 2.389h-0.008c-0.138 0.010-0.299 0.016-0.461 0.016-2.157 0-4.080-1-5.331-2.562l-0.010-0.013c-1.292-1.827-2.065-4.1-2.065-6.554 0-0.216 0.006-0.431 0.018-0.644l-0.001 0.030c0-5.973 2.56-9.045 7.851-9.045 0.162-0.016 0.351-0.025 0.541-0.025 2.667 0 4.914 1.8 5.593 4.251l0.010 0.041 5.461-1.024c-1.195-5.291-5.12-8.021-11.605-8.021-0.154-0.006-0.334-0.010-0.515-0.010-3.475 0-6.646 1.298-9.056 3.435l0.014-0.012c-2.452 2.416-3.971 5.773-3.971 9.484 0 0.386 0.016 0.769 0.049 1.146l-0.003-0.049c0 3.755 1.024 7.509 3.413 10.24 2.428 2.54 5.844 4.119 9.628 4.119 0.275 0 0.549-0.008 0.82-0.025l-0.037 0.002c4.267 0 8.533-1.536 11.605-4.437v-10.752h-11.947v4.608zM766.635 910.848h-5.461v27.307h19.115v-4.608h-13.653v-22.699zM824.661 910.848h-5.632v27.307h5.632v-27.307zM881.323 929.109l-11.264-18.261h-5.291v27.307h5.12v-17.749l10.923 17.749h5.461v-27.307h-5.12v18.261zM932.523 926.208h13.653v-4.608h-13.653v-6.144h14.507v-4.608h-20.139v27.307h20.821v-4.608h-15.36v-7.339zM1056.597 921.6h-10.752v-10.752h-5.461v27.307h5.461v-11.947h10.752v11.947h5.461v-27.307h-5.461v10.752zM1108.139 926.208h13.653v-4.608h-13.653v-6.144h14.677v-4.608h-20.139v27.307h20.651v-4.608h-15.189v-7.339zM1177.941 926.208c4.779-0.853 7.168-3.413 7.168-7.68 0.030-0.233 0.047-0.502 0.047-0.776 0-2.12-1.017-4.002-2.59-5.186l-0.017-0.012c-2.058-1.093-4.5-1.735-7.091-1.735-0.327 0-0.652 0.010-0.974 0.030l0.044-0.002h-11.605v27.307h5.461v-11.435h1.024c1.195 0 2.389 0.171 3.413 0.683 0.853 0.512 1.707 1.195 2.048 2.048l5.973 8.533h6.485l-3.413-5.12c-1.365-2.731-3.413-5.12-5.973-6.827zM1172.48 922.453h-4.096v-6.827h4.267c1.877-0.171 3.925 0 5.632 0.512 0.854 0.628 1.402 1.629 1.402 2.758 0 1.202-0.621 2.258-1.559 2.866l-0.013 0.008c-1.391 0.453-2.992 0.714-4.653 0.714-0.344 0-0.686-0.011-1.025-0.033l0.046 0.002zM1230.677 926.208h13.653v-4.608h-13.653v-6.144h14.677v-4.608h-20.139v27.307h20.651v-4.608h-15.189v-7.339z"></path>
</svg>
