<!-- Generated by IcoMoon.io -->
<svg version="1.1" xmlns="http://www.w3.org/2000/svg" width="1809" height="1024" viewBox="0 0 1809 1024">
<title></title>
<g id="icomoon-ignore">
</g>
<path d="M412.16 360.107c-40.96 0-74.24 29.525-74.24 65.877 0 36.523 33.28 65.877 74.069 65.877 40.96 0 74.24-29.355 74.24-65.877 0-36.352-33.28-65.877-74.069-65.877zM959.147 339.115c-0.171-50.517-22.869-98.987-63.147-134.827-39.941-34.678-92.453-55.813-149.9-55.813-0.521 0-1.041 0.002-1.561 0.005h0.080c-56.832 0-111.445 20.139-151.552 55.979-38.104 32.802-62.32 80.821-63.145 134.513l-0.002 0.143v278.528s429.227-42.496 429.227-278.528zM187.733 709.12c0 35.157 15.872 68.779 43.861 93.696 27.817 24.178 64.401 38.914 104.427 38.914 0.307 0 0.614-0.001 0.921-0.003h-0.047c39.595 0 77.483-13.995 105.472-38.912 26.477-22.842 43.297-56.25 43.86-93.599l0.001-0.097v-193.707s-298.496 29.525-298.496 193.707zM336.896 743.765c-7.68 0-15.36-1.877-21.675-5.803-6.229-3.662-11.147-8.964-14.243-15.318l-0.093-0.212c-1.878-3.896-2.976-8.472-2.976-13.305 0-2.422 0.276-4.78 0.798-7.044l-0.041 0.21c1.536-6.827 5.12-12.8 10.752-17.749 5.439-4.789 12.225-8.174 19.719-9.52l0.249-0.037c7.509-1.195 15.36-0.512 22.528 2.048s13.312 6.997 17.579 12.8c4.078 5.325 6.535 12.079 6.535 19.407 0 9.777-4.373 18.532-11.269 24.417l-0.045 0.037c-3.755 3.413-8.021 5.803-12.8 7.68-4.779 1.707-9.728 2.56-15.019 2.56zM638.635 724.651h-28.843v29.867h-15.019v-72.875h47.445v12.117h-32.427v18.773h28.843v12.117zM710.656 719.701c0 7.168-1.195 13.483-3.755 18.773-4.515 10.142-14.504 17.085-26.115 17.085-0.359 0-0.717-0.007-1.072-0.020l0.051 0.002c-0.303 0.011-0.659 0.018-1.016 0.018-11.569 0-21.557-6.772-26.216-16.567l-0.075-0.176c-2.382-5.165-3.771-11.208-3.771-17.575 0-0.421 0.006-0.841 0.018-1.259l-0.001 0.061v-3.243c0-7.339 1.195-13.653 3.925-18.944 4.665-10.152 14.746-17.075 26.443-17.075 0.244 0 0.486 0.003 0.729 0.009l-0.036-0.001c5.973 0 11.435 1.536 16.043 4.437 4.779 2.901 8.533 7.168 10.923 12.629 2.731 5.291 3.925 11.605 3.925 18.773v3.413zM695.467 716.288c0-7.509-1.365-13.312-4.096-17.237-2.417-3.626-6.49-5.982-11.112-5.982-0.173 0-0.346 0.003-0.518 0.010l0.025-0.001c-5.12 0-9.045 1.877-11.776 5.803s-4.096 9.728-4.096 17.237v3.584c0 7.509 1.365 13.141 4.096 17.237s6.827 6.144 11.947 6.144c4.949 0 8.704-1.877 11.435-5.803s4.096-9.728 4.096-17.237v-3.584zM759.296 735.403c0-2.901-1.024-5.12-2.901-6.485-3.139-2.035-6.775-3.672-10.654-4.717l-0.269-0.062c-5.12-1.707-9.216-3.413-12.288-5.12-8.192-4.437-12.459-10.411-12.459-17.92 0-4.096 1.195-7.509 3.413-10.581s5.291-5.461 9.557-7.339c4.096-1.707 8.704-2.56 13.995-2.56 5.12 0 9.728 1.024 13.824 2.901 4.096 1.707 7.168 4.437 9.557 8.021 2.219 3.413 3.413 7.339 3.413 11.605h-15.019c0-3.413-1.195-5.973-3.243-7.68-2.194-1.819-5.039-2.922-8.141-2.922-0.258 0-0.515 0.008-0.769 0.023l0.035-0.002c-0.234-0.014-0.509-0.023-0.785-0.023-2.897 0-5.584 0.902-7.793 2.441l0.045-0.029c-1.87 1.347-3.074 3.519-3.074 5.972 0 0.060 0.001 0.121 0.002 0.181v-0.009c0 2.389 1.195 4.267 3.584 5.973 2.389 1.536 5.973 3.072 10.581 4.437 8.533 2.56 14.677 5.803 18.773 9.557 3.755 3.755 5.632 8.533 5.632 14.165 0 6.315-2.219 11.264-6.997 14.848s-11.264 5.461-19.285 5.461c-0.142 0.002-0.31 0.003-0.478 0.003-5.38 0-10.496-1.132-15.122-3.17l0.241 0.095c-8.343-3.142-14.171-11.058-14.171-20.334 0-0.171 0.002-0.342 0.006-0.512v0.025h15.019c0 8.021 4.949 11.947 14.507 11.947 3.413 0 6.315-0.683 8.363-2.048 1.877-1.707 2.901-3.584 2.901-6.144zM839.509 693.76h-22.357v60.757h-15.019v-60.757h-22.187v-11.947h59.392v11.947zM891.733 722.773h-28.672v19.627h33.792v11.947h-48.811v-72.704h48.64v12.117h-33.621v17.408h28.672v11.776zM932.693 727.893h-11.947v26.624h-15.189v-72.875h27.136c8.533 0 15.189 1.877 19.797 5.803 4.779 3.755 6.997 9.216 6.997 16.213 0 5.12-1.024 9.045-3.243 12.459-2.048 3.413-5.291 5.973-9.728 7.851l15.701 29.867v0.683h-16.043l-13.653-26.624zM920.747 715.605h11.947c3.755 0 6.827-0.853 8.704-2.731 1.91-1.862 3.095-4.46 3.095-7.335 0-0.241-0.008-0.481-0.025-0.718l0.002 0.032c0-3.413-0.853-6.144-2.901-8.021-1.877-2.048-4.949-3.072-8.875-3.072h-11.947v21.845zM1011.541 728.747v25.6h-15.019v-72.704h28.331c5.461 0 10.24 1.024 14.507 3.072 4.096 1.877 7.339 4.779 9.557 8.533 2.219 3.584 3.413 7.851 3.413 12.459 0 7.168-2.56 12.8-7.509 17.067-4.779 3.925-11.605 5.973-20.139 5.973h-13.141zM1011.541 716.8h13.312c3.925 0 6.997-1.024 9.045-2.901 2.219-1.877 3.243-4.608 3.243-8.021 0.003-0.103 0.005-0.224 0.005-0.345 0-3.172-1.236-6.055-3.253-8.194l0.006 0.006c-2.128-2.111-5.058-3.416-8.293-3.416-0.084 0-0.168 0.001-0.252 0.003h-13.811v22.699zM1106.432 722.944h-28.843v19.456h33.792v11.947h-48.811v-72.704h48.64v12.117h-33.621v17.408h28.843v11.776zM1176.064 693.931h-22.357v60.587h-15.019v-60.757h-22.016v-11.947h59.392v11.947zM1228.459 722.944h-29.013v19.456h33.963v11.947h-48.981v-72.704h48.64v12.117h-33.28v17.408h28.843v11.776zM1269.077 727.893h-11.947v26.624h-15.019v-72.875h27.136c8.533 0 15.36 1.877 19.968 5.803 4.608 3.755 6.827 9.216 6.827 16.213 0 5.12-1.024 9.045-3.072 12.459-2.219 3.413-5.461 5.973-9.899 7.851l15.872 29.867v0.683h-16.213l-13.653-26.624zM1257.131 715.605h12.117c3.755 0 6.827-0.853 8.875-2.731 1.91-1.862 3.095-4.46 3.095-7.335 0-0.241-0.008-0.481-0.025-0.718l0.002 0.032c0-3.413-1.024-6.144-3.072-8.021-1.707-2.048-4.779-3.072-8.875-3.072h-11.947v21.845zM1345.365 735.403c0-2.901-1.024-5.12-3.072-6.485-3.090-2.020-6.667-3.654-10.482-4.715l-0.27-0.064c-5.12-1.707-9.387-3.413-12.288-5.12-8.363-4.437-12.459-10.411-12.459-17.92 0-4.096 1.024-7.509 3.413-10.581 2.048-3.072 5.291-5.461 9.387-7.339 4.267-1.707 8.875-2.56 13.995-2.56s9.899 1.024 13.995 2.901c4.096 1.707 7.168 4.437 9.387 8.021 2.219 3.413 3.413 7.339 3.413 11.605h-15.019c0-3.413-1.024-5.973-3.072-7.68-2.194-1.819-5.039-2.922-8.141-2.922-0.258 0-0.515 0.008-0.769 0.023l0.035-0.002c-0.234-0.014-0.509-0.023-0.785-0.023-2.897 0-5.584 0.902-7.793 2.441l0.045-0.029c-1.87 1.347-3.074 3.519-3.074 5.972 0 0.060 0.001 0.121 0.002 0.181v-0.009c0 2.389 1.195 4.267 3.413 5.973 2.56 1.536 5.973 3.072 10.752 4.437 8.533 2.56 14.677 5.803 18.603 9.557s5.803 8.533 5.803 14.165c0 6.315-2.389 11.264-7.168 14.848s-11.093 5.461-19.285 5.461c-0.142 0.002-0.31 0.003-0.478 0.003-5.38 0-10.496-1.132-15.122-3.17l0.241 0.095c-8.343-3.142-14.171-11.058-14.171-20.334 0-0.171 0.002-0.342 0.006-0.512v0.025h15.189c0 8.021 4.779 11.947 14.336 11.947 3.584 0 6.485-0.683 8.533-2.048 1.877-1.707 2.901-3.584 2.901-6.144z"></path>
</svg>
