<!-- Generated by IcoMoon.io -->
<svg version="1.1" xmlns="http://www.w3.org/2000/svg" width="1024" height="1024" viewBox="0 0 1024 1024">
<title></title>
<g id="icomoon-ignore">
</g>
<path d="M1024 194.56c-37.888 16.896-78.848 27.648-120.832 33.28 43.52-26.112 76.8-66.56 92.16-116.224-40.96 24.064-85.504 40.96-133.12 51.2-38.468-41.527-93.287-67.435-154.158-67.435-115.936 0-209.92 93.984-209.92 209.92 0 17.205 2.070 33.926 5.974 49.928l-0.296-1.437c-174.78-8.991-328.472-92.241-431.272-218.562l-0.856-1.086c-17.847 30.353-28.388 66.86-28.388 105.829 0 72.316 36.301 136.153 91.676 174.283l0.712 0.464c-33.28 0-66.56-10.24-94.72-25.6v2.048c0 102.4 72.704 186.88 168.448 206.336-16.576 4.717-35.614 7.43-55.285 7.43-14.132 0-27.937-1.4-41.284-4.068l1.336 0.223c28.109 83.949 105.098 143.771 196.357 145.915l0.251 0.005c-71.086 56.405-162.104 90.49-261.084 90.49-17.515 0-34.781-1.067-51.736-3.141l2.035 0.203c90.428 59.072 201.152 94.211 320.083 94.211 0.691 0 1.381-0.001 2.071-0.004h-0.107c386.56 0 597.504-320 597.504-597.504 0-9.216 0-18.432-1.024-27.136 41.984-29.696 76.8-66.56 105.472-109.056z"></path>
</svg>
